<svg width="46" height="49" fill="none" xmlns="http://www.w3.org/2000/svg"><path d="M5.443 43.504a3.816 3.816 0 0 1 0-5.397l20.09-20.09 5.397 5.397-20.09 20.09a3.817 3.817 0 0 1-5.397 0Z" fill="#FDC886"/><path d="M24.933 17.417a1.696 1.696 0 0 1 0-2.399l4.798-4.797 8.995 8.995-4.797 4.798a1.696 1.696 0 0 1-2.4 0l-6.596-6.597Z" fill="#FDC886"/><path fill="#FDC886" d="m27.332 12.62 7.796-7.796 1.799 1.799-7.796 7.796zM30.93 16.218l7.796-7.796 1.799 1.8-7.796 7.795zM34.528 19.816l7.796-7.796 1.799 1.8-7.796 7.795z"/><path d="M7.754 3.476 6.567 2.27l-.83 1.475c-1.512 2.693-3.067 9.389 2.394 15.13l12.814 13.468.876.922.922-.877.792-.753L35.71 45.126a4.647 4.647 0 1 0 6.762-6.373L7.754 3.476Z" fill="#FDC886" stroke="#FFF4E7" stroke-width="2.544"/></svg>