<svg width="50" height="50" fill="none" xmlns="http://www.w3.org/2000/svg"><path fill-rule="evenodd" clip-rule="evenodd" d="m45.298 18.101 1.74 1.74c1.379 1.354 2.128 3.19 2.128 5.124a7.188 7.188 0 0 1-2.079 5.147c-.016.018-.032.033-.048.049l-.025.024-1.716 1.716a3.622 3.622 0 0 0-1.064 2.564v2.486c0 4.012-3.263 7.277-7.276 7.277h-2.49a3.62 3.62 0 0 0-2.563 1.06l-1.74 1.74a7.238 7.238 0 0 1-5.15 2.128 7.322 7.322 0 0 1-5.15-2.1l-1.764-1.767a3.62 3.62 0 0 0-2.563-1.061h-2.49c-4.013 0-7.277-3.265-7.277-7.277v-2.486c0-.97-.387-1.888-1.063-2.589L2.967 30.16C.138 27.335.114 22.718 2.943 19.868L4.708 18.1a3.635 3.635 0 0 0 1.063-2.585V13.05c0-4.011 3.264-7.271 7.277-7.271h2.49c.967 0 1.886-.39 2.563-1.066l1.74-1.74c2.829-2.85 7.446-2.85 10.3-.022l1.764 1.762a3.626 3.626 0 0 0 2.563 1.066h2.49c4.013 0 7.276 3.26 7.276 7.271v2.492a3.62 3.62 0 0 0 1.064 2.56Zm-26.52 15.225c.58 0 1.112-.217 1.498-.628l12.427-12.42a2.132 2.132 0 0 0 0-2.998 2.106 2.106 0 0 0-2.974 0L17.303 29.7a2.129 2.129 0 0 0 0 2.997c.387.41.919.628 1.475.628ZM29.1 31.2c0 1.184.943 2.126 2.127 2.126a2.11 2.11 0 0 0 2.103-2.126 2.106 2.106 0 0 0-2.103-2.103 2.111 2.111 0 0 0-2.127 2.103ZM18.8 16.675c1.161 0 2.104.943 2.104 2.103a2.108 2.108 0 0 1-2.103 2.127c-1.16 0-2.128-.94-2.128-2.127 0-1.16.968-2.103 2.128-2.103Z" fill="#FDC886"/></svg>