<svg width="41" height="41" fill="none" xmlns="http://www.w3.org/2000/svg"><path d="M13.946 15.63c.303-.865 1.949-.865 2.252 0 .725 2.065 1.807 4.457 3.266 5.916 1.459 1.459 3.85 2.54 5.916 3.265.864.303.864 1.95 0 2.253-2.065.724-4.457 1.806-5.916 3.265-1.46 1.459-2.541 3.851-3.266 5.916-.303.864-1.95.864-2.252 0-.725-2.065-1.807-4.457-3.266-5.916-1.459-1.459-3.85-2.54-5.916-3.265-.864-.304-.864-1.95 0-2.253 2.065-.725 4.457-1.806 5.916-3.265 1.46-1.46 2.54-3.851 3.266-5.917ZM32.128 24.586c.144-.435.949-.435 1.092 0 .42 1.27 1.087 2.847 2.016 3.776.929.929 2.506 1.596 3.776 2.016.435.143.435.948 0 1.092-1.27.42-2.847 1.087-3.776 2.016-.929.928-1.596 2.506-2.016 3.776-.143.434-.948.434-1.092 0-.42-1.27-1.087-2.848-2.016-3.776-.929-.93-2.506-1.596-3.776-2.016-.435-.144-.435-.949 0-1.092 1.27-.42 2.847-1.087 3.776-2.016.929-.929 1.596-2.506 2.016-3.776ZM8.579 2.719c.143-.435.948-.435 1.092 0 .42 1.27 1.087 2.847 2.016 3.776.929.929 2.506 1.595 3.776 2.015.435.144.435.95 0 1.093-1.27.42-2.847 1.087-3.776 2.016-.93.928-1.596 2.506-2.016 3.776-.144.434-.949.434-1.092 0-.42-1.27-1.087-2.848-2.016-3.776-.929-.93-2.506-1.596-3.776-2.016-.435-.144-.435-.949 0-1.093 1.27-.42 2.847-1.086 3.776-2.015.929-.929 1.596-2.506 2.016-3.776ZM27.116 4.67c.344-.849 2.073-.849 2.418 0 .52 1.283 1.212 2.6 2.084 3.472.873.872 2.19 1.564 3.472 2.085.849.344.849 2.073 0 2.417-1.283.52-2.6 1.213-3.472 2.085-.872.873-1.564 2.19-2.084 3.472-.345.849-2.074.849-2.418 0-.52-1.283-1.213-2.6-2.085-3.472-.872-.872-2.19-1.564-3.472-2.085-.849-.344-.849-2.073 0-2.417 1.283-.52 2.6-1.213 3.472-2.085.872-.872 1.565-2.19 2.085-3.472Z" fill="#FDC886"/></svg>