<svg width="20" height="20" fill="none" xmlns="http://www.w3.org/2000/svg"><mask id="a" style="mask-type:alpha" maskUnits="userSpaceOnUse" x="0" y="0" width="20" height="20"><path fill-rule="evenodd" clip-rule="evenodd" d="M0 0h20v20H0V0Z" fill="#fff"/></mask><g mask="url(#a)"><path fill-rule="evenodd" clip-rule="evenodd" d="M5.664 1.5C3.135 1.5 1.5 3.233 1.5 5.916v8.168c0 2.683 1.635 4.416 4.164 4.416h8.668c2.532 0 4.168-1.733 4.168-4.416V5.916c0-2.683-1.636-4.416-4.166-4.416h-8.67ZM14.332 20H5.664C2.276 20 0 17.622 0 14.084V5.916C0 2.378 2.276 0 5.664 0h8.67C17.723 0 20 2.378 20 5.916v8.168C20 17.622 17.723 20 14.332 20Z" fill="#656565"/></g><path fill-rule="evenodd" clip-rule="evenodd" d="M9.994 14.75a.75.75 0 0 1-.75-.75v-4a.75.75 0 0 1 1.5 0v4a.75.75 0 0 1-.75.75ZM9.999 7.204a1.003 1.003 0 0 1-1.005-1c0-.553.443-1 .995-1h.01a1 1 0 1 1 0 2Z" fill="#656565"/></svg>