<svg width="118" height="38" fill="none" xmlns="http://www.w3.org/2000/svg"><path d="M12.233 31.429v-4.332a2.01 2.01 0 0 1 2.016-2.002h4.072c.535 0 1.048.21 1.426.586.379.376.591.885.591 1.416v4.332c-.003.46.178.902.505 1.228.326.326.77.51 1.233.51h2.778a4.902 4.902 0 0 0 3.461-1.416 4.83 4.83 0 0 0 1.435-3.432v-12.34c0-1.041-.465-2.028-1.268-2.696l-9.45-7.492a4.388 4.388 0 0 0-5.594.1l-9.235 7.392a3.505 3.505 0 0 0-1.37 2.695v12.328c0 2.684 2.192 4.86 4.897 4.86h2.714c.962 0 1.744-.77 1.75-1.724l.039-.013Z" fill="#5A4FCF"/><path d="M46.274 28.252c-.71 0-1.251-.196-1.624-.588-.374-.392-.56-.943-.56-1.652v-15.54c0-1.475.737-2.212 2.212-2.212h6.804c2.202 0 3.9.532 5.096 1.596 1.194 1.064 1.792 2.548 1.792 4.452 0 1.475-.383 2.707-1.148 3.696-.747.97-1.82 1.633-3.22 1.988.989.299 1.8 1.017 2.436 2.156l1.736 3.22c.392.71.466 1.372.224 1.988-.243.597-.831.896-1.764.896-.616 0-1.12-.13-1.512-.392-.392-.261-.728-.663-1.008-1.204L53.05 21.7c-.28-.523-.626-.877-1.036-1.064-.411-.187-.896-.28-1.456-.28H48.43v5.656c0 .71-.187 1.26-.56 1.652-.355.392-.887.588-1.596.588ZM48.43 17.22h3.892c2.333 0 3.5-.933 3.5-2.8 0-1.848-1.167-2.772-3.5-2.772H48.43v5.572Zm21.549 11.088c-1.624 0-3.024-.29-4.2-.868-1.157-.597-2.053-1.428-2.688-2.492-.616-1.083-.924-2.352-.924-3.808 0-1.419.298-2.66.896-3.724a6.596 6.596 0 0 1 2.492-2.52c1.064-.616 2.286-.924 3.668-.924 1.997 0 3.584.635 4.76 1.904 1.176 1.25 1.764 2.95 1.764 5.096 0 .71-.439 1.064-1.316 1.064h-8.232c.15 1.083.541 1.876 1.176 2.38.653.485 1.55.728 2.688.728a9.29 9.29 0 0 0 1.512-.14 6.392 6.392 0 0 0 1.652-.56c.541-.261.998-.308 1.372-.14.373.15.625.41.756.784.15.373.15.765 0 1.176-.13.392-.439.719-.924.98a7.972 7.972 0 0 1-2.184.784c-.784.187-1.54.28-2.268.28Zm-.588-11.536c-.896 0-1.624.27-2.184.812-.541.541-.877 1.297-1.008 2.268h6.048c-.112-2.053-1.064-3.08-2.856-3.08ZM83.47 28.308c-.821 0-1.67-.075-2.548-.224a8.475 8.475 0 0 1-2.352-.756c-.467-.243-.775-.55-.924-.924a1.57 1.57 0 0 1 0-1.092c.13-.355.364-.616.7-.784.336-.187.728-.187 1.176 0 .765.317 1.465.541 2.1.672.653.13 1.279.196 1.876.196.784 0 1.363-.121 1.736-.364.373-.261.56-.597.56-1.008 0-.653-.476-1.064-1.428-1.232l-2.94-.532c-1.176-.205-2.072-.625-2.688-1.26-.616-.635-.924-1.465-.924-2.492 0-.933.261-1.736.784-2.408.523-.672 1.241-1.195 2.156-1.568s1.97-.56 3.164-.56c1.643 0 3.099.317 4.368.952.43.205.69.495.784.868a1.57 1.57 0 0 1-.056 1.092c-.15.355-.392.625-.728.812-.336.168-.737.15-1.204-.056a8.67 8.67 0 0 0-1.68-.588 5.697 5.697 0 0 0-1.428-.196c-.84 0-1.447.14-1.82.42-.373.261-.56.597-.56 1.008 0 .653.439 1.064 1.316 1.232l2.94.532c1.213.205 2.137.616 2.772 1.232.635.597.952 1.419.952 2.464 0 1.437-.56 2.557-1.68 3.36-1.12.803-2.595 1.204-4.424 1.204Zm15.129 0c-3.864 0-5.796-1.876-5.796-5.628v-5.264h-1.176c-1.102 0-1.652-.523-1.652-1.568 0-1.064.55-1.596 1.652-1.596h1.176v-2.128c0-1.437.709-2.156 2.128-2.156 1.4 0 2.1.719 2.1 2.156v2.128h2.66c1.082 0 1.624.532 1.624 1.596 0 1.045-.542 1.568-1.624 1.568h-2.66v5.096c0 .784.177 1.372.532 1.764.373.392.96.588 1.764.588.28 0 .54-.028.784-.084.242-.056.466-.093.672-.112a.75.75 0 0 1 .644.252c.168.187.252.57.252 1.148 0 .467-.075.868-.224 1.204-.15.317-.411.55-.784.7-.243.093-.579.168-1.008.224-.411.075-.766.112-1.064.112Zm11.043 0c-1.475 0-2.763-.29-3.864-.868a6.342 6.342 0 0 1-2.52-2.492c-.597-1.083-.896-2.361-.896-3.836 0-1.456.299-2.716.896-3.78a6.112 6.112 0 0 1 2.52-2.492c1.101-.579 2.389-.868 3.864-.868s2.753.29 3.836.868a6.074 6.074 0 0 1 2.548 2.492c.616 1.064.924 2.324.924 3.78 0 1.475-.308 2.753-.924 3.836a6.3 6.3 0 0 1-2.548 2.492c-1.083.579-2.361.868-3.836.868Zm0-3.164c.896 0 1.624-.327 2.184-.98.579-.653.868-1.67.868-3.052 0-1.363-.289-2.361-.868-2.996-.56-.653-1.288-.98-2.184-.98-.896 0-1.624.327-2.184.98-.56.635-.84 1.633-.84 2.996 0 1.381.28 2.399.84 3.052.56.653 1.288.98 2.184.98Z" fill="#232631"/></svg>