<svg width="37" height="41" fill="none" xmlns="http://www.w3.org/2000/svg"><path d="M10.355 1.822C10.355.816 11.171 0 12.177 0h7.29c1.006 0 1.821.816 1.821 1.822v.911a4.556 4.556 0 0 1-4.555 4.556H14.91a4.556 4.556 0 0 1-4.556-4.556v-.91ZM9.3 11.448c.654-.912 1.711-1.426 2.834-1.426h7.375c1.123 0 2.18.514 2.835 1.426 2.186 3.047 7.086 10.402 8.055 16.34.381 2.334.784 4.184.262 6.073-.924 3.34-4.923 4.406-8.39 4.406H9.372c-3.466 0-7.466-1.065-8.39-4.407-.522-1.888-.119-3.738.262-6.071.97-5.94 5.87-13.294 8.055-16.341Z" fill="#FDC886"/><path d="M16.441 32.104c-.316 0-.577-.11-.783-.328a1.04 1.04 0 0 1-.31-.765v-1.075a8.244 8.244 0 0 1-1.877-.328c-.534-.183-.99-.371-1.367-.565-.34-.17-.552-.407-.637-.711a1.396 1.396 0 0 1 .036-.893c.122-.291.316-.498.583-.62.28-.133.608-.109.984.073.292.158.699.322 1.221.492.522.158 1.16.237 1.913.237.839 0 1.434-.133 1.786-.4.353-.268.529-.602.529-1.003 0-.328-.122-.601-.365-.82-.243-.218-.68-.395-1.312-.528l-2.004-.438c-2.211-.485-3.317-1.664-3.317-3.535 0-1.02.347-1.883 1.039-2.587.692-.705 1.622-1.148 2.788-1.33V15.83c0-.303.103-.558.31-.765.206-.219.467-.328.783-.328.304 0 .56.11.766.328.206.207.31.462.31.765v1.094c.449.06.91.17 1.384.328a4.79 4.79 0 0 1 1.276.62c.291.182.468.418.528.71.073.28.049.547-.073.802a1.068 1.068 0 0 1-.6.546c-.268.098-.596.05-.985-.145a6.574 6.574 0 0 0-1.075-.401c-.389-.11-.869-.164-1.44-.164-.704 0-1.257.146-1.658.437-.4.292-.601.668-.601 1.13 0 .328.115.601.346.82.243.206.662.377 1.257.51l2.023.438c1.154.255 2.005.674 2.551 1.257.559.57.838 1.306.838 2.205 0 1.032-.352 1.883-1.056 2.55-.693.669-1.598 1.1-2.716 1.295v1.148c0 .303-.103.559-.31.765a1.011 1.011 0 0 1-.765.328Z" fill="#FFF4E7"/><circle cx="28.978" cy="33.711" r="6.378" fill="#FDC886" stroke="#FFF4E7" stroke-width="1.822"/><rect x="27.533" y="30.978" width="5.467" height="1.822" rx=".911" transform="rotate(45 27.533 30.978)" fill="#FFF4E7"/><rect x="26.244" y="34.843" width="5.467" height="1.822" rx=".911" transform="rotate(-45 26.244 34.843)" fill="#FFF4E7"/></svg>