<svg width="21" height="21" fill="none" xmlns="http://www.w3.org/2000/svg"><path fill-rule="evenodd" clip-rule="evenodd" d="M19.514 20.722a.75.75 0 0 1-.53-.22L15.46 16.99a.75.75 0 0 1 1.06-1.063l3.524 3.515a.749.749 0 0 1-.53 1.28Z" fill="#858585"/><path fill-rule="evenodd" clip-rule="evenodd" d="M9.739 1.5C5.196 1.5 1.5 5.195 1.5 9.738c0 4.543 3.696 8.239 8.239 8.239 4.542 0 8.238-3.696 8.238-8.239 0-4.543-3.696-8.238-8.238-8.238Zm0 17.977C4.369 19.477 0 15.108 0 9.738 0 4.368 4.369 0 9.739 0c5.37 0 9.738 4.368 9.738 9.738 0 5.37-4.368 9.739-9.738 9.739Z" fill="#858585"/></svg>