<svg width="37" height="42" fill="none" xmlns="http://www.w3.org/2000/svg"><path fill-rule="evenodd" clip-rule="evenodd" d="M17.892 41.654c.23.12.489.181.747.18a1.63 1.63 0 0 0 .746-.189l7.433-3.973c2.108-1.124 3.759-2.38 5.046-3.843 2.8-3.187 4.33-7.254 4.302-11.448l-.088-13.835c-.008-1.594-1.055-3.016-2.603-3.532L19.647.374a3.935 3.935 0 0 0-2.563.014L3.31 5.193C1.769 5.731.742 7.163.75 8.758l.088 13.825c.027 4.2 1.609 8.25 4.455 11.403 1.3 1.443 2.966 2.68 5.097 3.786l7.502 3.882Zm-1.968-16.26c.31.298.713.445 1.116.44a1.584 1.584 0 0 0 1.11-.455l8.123-8.008a1.504 1.504 0 0 0-.013-2.166 1.603 1.603 0 0 0-2.225.012l-7.018 6.918-2.873-2.762a1.603 1.603 0 0 0-2.226.014 1.502 1.502 0 0 0 .015 2.166l3.991 3.84Z" fill="#FDC886"/></svg>