<svg width="18" height="17" fill="none" xmlns="http://www.w3.org/2000/svg"><path d="M7.573 1.89c.45-1.381 2.405-1.381 2.854 0l.93 2.865a1.5 1.5 0 0 0 1.427 1.037h3.012c1.453 0 2.057 1.86.882 2.713l-2.437 1.77a1.5 1.5 0 0 0-.545 1.678l.93 2.865c.45 1.382-1.132 2.53-2.307 1.677l-2.437-1.77a1.5 1.5 0 0 0-1.764 0l-2.437 1.77c-1.175.854-2.757-.295-2.308-1.677l.931-2.865a1.5 1.5 0 0 0-.545-1.677l-2.437-1.77C.147 7.65.751 5.791 2.204 5.791h3.012a1.5 1.5 0 0 0 1.427-1.037l.93-2.864Z" fill="#FFB800"/></svg>